<?xml version="1.0" encoding="utf-8"?>
<!DOCTYPE svg PUBLIC "-//W3C//DTD SVG 1.1//EN" "http://www.w3.org/Graphics/SVG/1.1/DTD/svg11.dtd">
<svg version="1.1" id="Layer_1" xmlns="http://www.w3.org/2000/svg" xmlns:xlink="http://www.w3.org/1999/xlink" x="0px" y="0px"
width="290px" height="290px" viewBox="0 0 290 290" enable-background="new 0 0 290 290" xml:space="preserve">
<rect x="0" y="0" width="290" height="290" fill="rgb(91,91,91)" /><g transform="translate(20,20)"><g transform="translate(90,0) scale(0.1,0.1)"><g transform="" style="fill: rgb(190, 190, 190);">
<polygon points="0,50 50,100 100,50 50,0"/>
</g></g><g transform="translate(100,0) scale(0.1,0.1)"><g transform="" style="fill: rgb(190, 190, 190);">
<polygon points="0,50 50,100 100,50 50,0"/>
</g></g><g transform="translate(110,0) scale(0.1,0.1)"><g transform="" style="fill: rgb(190, 190, 190);">
<polygon points="0,50 50,100 100,50 50,0"/>
</g></g><g transform="translate(120,0) scale(0.1,0.1)"><g transform="" style="fill: rgb(190, 190, 190);">
<polygon points="0,50 50,100 100,50 50,0"/>
</g></g><g transform="translate(130,0) scale(0.1,0.1)"><g transform="" style="fill: rgb(190, 190, 190);">
<polygon points="0,50 50,100 100,50 50,0"/>
</g></g><g transform="translate(90,10) scale(0.1,0.1)"><g transform="" style="fill: rgb(190, 190, 190);">
<polygon points="0,50 50,100 100,50 50,0"/>
</g></g><g transform="translate(100,10) scale(0.1,0.1)"><g transform="" style="fill: rgb(190, 190, 190);">
<polygon points="0,50 50,100 100,50 50,0"/>
</g></g><g transform="translate(130,10) scale(0.1,0.1)"><g transform="" style="fill: rgb(190, 190, 190);">
<polygon points="0,50 50,100 100,50 50,0"/>
</g></g><g transform="translate(140,10) scale(0.1,0.1)"><g transform="" style="fill: rgb(190, 190, 190);">
<polygon points="0,50 50,100 100,50 50,0"/>
</g></g><g transform="translate(150,10) scale(0.1,0.1)"><g transform="" style="fill: rgb(190, 190, 190);">
<polygon points="0,50 50,100 100,50 50,0"/>
</g></g><g transform="translate(80,20) scale(0.1,0.1)"><g transform="" style="fill: rgb(190, 190, 190);">
<polygon points="0,50 50,100 100,50 50,0"/>
</g></g><g transform="translate(90,20) scale(0.1,0.1)"><g transform="" style="fill: rgb(190, 190, 190);">
<polygon points="0,50 50,100 100,50 50,0"/>
</g></g><g transform="translate(110,20) scale(0.1,0.1)"><g transform="" style="fill: rgb(190, 190, 190);">
<polygon points="0,50 50,100 100,50 50,0"/>
</g></g><g transform="translate(80,30) scale(0.1,0.1)"><g transform="" style="fill: rgb(190, 190, 190);">
<polygon points="0,50 50,100 100,50 50,0"/>
</g></g><g transform="translate(90,30) scale(0.1,0.1)"><g transform="" style="fill: rgb(190, 190, 190);">
<polygon points="0,50 50,100 100,50 50,0"/>
</g></g><g transform="translate(110,30) scale(0.1,0.1)"><g transform="" style="fill: rgb(190, 190, 190);">
<polygon points="0,50 50,100 100,50 50,0"/>
</g></g><g transform="translate(130,30) scale(0.1,0.1)"><g transform="" style="fill: rgb(190, 190, 190);">
<polygon points="0,50 50,100 100,50 50,0"/>
</g></g><g transform="translate(140,30) scale(0.1,0.1)"><g transform="" style="fill: rgb(190, 190, 190);">
<polygon points="0,50 50,100 100,50 50,0"/>
</g></g><g transform="translate(150,30) scale(0.1,0.1)"><g transform="" style="fill: rgb(190, 190, 190);">
<polygon points="0,50 50,100 100,50 50,0"/>
</g></g><g transform="translate(160,30) scale(0.1,0.1)"><g transform="" style="fill: rgb(190, 190, 190);">
<polygon points="0,50 50,100 100,50 50,0"/>
</g></g><g transform="translate(80,40) scale(0.1,0.1)"><g transform="" style="fill: rgb(190, 190, 190);">
<polygon points="0,50 50,100 100,50 50,0"/>
</g></g><g transform="translate(100,40) scale(0.1,0.1)"><g transform="" style="fill: rgb(190, 190, 190);">
<polygon points="0,50 50,100 100,50 50,0"/>
</g></g><g transform="translate(140,40) scale(0.1,0.1)"><g transform="" style="fill: rgb(190, 190, 190);">
<polygon points="0,50 50,100 100,50 50,0"/>
</g></g><g transform="translate(160,40) scale(0.1,0.1)"><g transform="" style="fill: rgb(190, 190, 190);">
<polygon points="0,50 50,100 100,50 50,0"/>
</g></g><g transform="translate(80,50) scale(0.1,0.1)"><g transform="" style="fill: rgb(190, 190, 190);">
<polygon points="0,50 50,100 100,50 50,0"/>
</g></g><g transform="translate(90,50) scale(0.1,0.1)"><g transform="" style="fill: rgb(190, 190, 190);">
<polygon points="0,50 50,100 100,50 50,0"/>
</g></g><g transform="translate(100,50) scale(0.1,0.1)"><g transform="" style="fill: rgb(190, 190, 190);">
<polygon points="0,50 50,100 100,50 50,0"/>
</g></g><g transform="translate(110,50) scale(0.1,0.1)"><g transform="" style="fill: rgb(190, 190, 190);">
<polygon points="0,50 50,100 100,50 50,0"/>
</g></g><g transform="translate(130,50) scale(0.1,0.1)"><g transform="" style="fill: rgb(190, 190, 190);">
<polygon points="0,50 50,100 100,50 50,0"/>
</g></g><g transform="translate(150,50) scale(0.1,0.1)"><g transform="" style="fill: rgb(190, 190, 190);">
<polygon points="0,50 50,100 100,50 50,0"/>
</g></g><g transform="translate(160,50) scale(0.1,0.1)"><g transform="" style="fill: rgb(190, 190, 190);">
<polygon points="0,50 50,100 100,50 50,0"/>
</g></g><g transform="translate(80,60) scale(0.1,0.1)"><g transform="" style="fill: rgb(190, 190, 190);">
<polygon points="0,50 50,100 100,50 50,0"/>
</g></g><g transform="translate(100,60) scale(0.1,0.1)"><g transform="" style="fill: rgb(190, 190, 190);">
<polygon points="0,50 50,100 100,50 50,0"/>
</g></g><g transform="translate(120,60) scale(0.1,0.1)"><g transform="" style="fill: rgb(190, 190, 190);">
<polygon points="0,50 50,100 100,50 50,0"/>
</g></g><g transform="translate(140,60) scale(0.1,0.1)"><g transform="" style="fill: rgb(190, 190, 190);">
<polygon points="0,50 50,100 100,50 50,0"/>
</g></g><g transform="translate(160,60) scale(0.1,0.1)"><g transform="" style="fill: rgb(190, 190, 190);">
<polygon points="0,50 50,100 100,50 50,0"/>
</g></g><g transform="translate(80,70) scale(0.1,0.1)"><g transform="" style="fill: rgb(190, 190, 190);">
<polygon points="0,50 50,100 100,50 50,0"/>
</g></g><g transform="translate(120,70) scale(0.1,0.1)"><g transform="" style="fill: rgb(190, 190, 190);">
<polygon points="0,50 50,100 100,50 50,0"/>
</g></g><g transform="translate(160,70) scale(0.1,0.1)"><g transform="" style="fill: rgb(190, 190, 190);">
<polygon points="0,50 50,100 100,50 50,0"/>
</g></g><g transform="translate(0,80) scale(0.1,0.1)"><g transform="" style="fill: rgb(190, 190, 190);">
<polygon points="0,50 50,100 100,50 50,0"/>
</g></g><g transform="translate(20,80) scale(0.1,0.1)"><g transform="" style="fill: rgb(190, 190, 190);">
<polygon points="0,50 50,100 100,50 50,0"/>
</g></g><g transform="translate(30,80) scale(0.1,0.1)"><g transform="" style="fill: rgb(190, 190, 190);">
<polygon points="0,50 50,100 100,50 50,0"/>
</g></g><g transform="translate(40,80) scale(0.1,0.1)"><g transform="" style="fill: rgb(190, 190, 190);">
<polygon points="0,50 50,100 100,50 50,0"/>
</g></g><g transform="translate(50,80) scale(0.1,0.1)"><g transform="" style="fill: rgb(190, 190, 190);">
<polygon points="0,50 50,100 100,50 50,0"/>
</g></g><g transform="translate(60,80) scale(0.1,0.1)"><g transform="" style="fill: rgb(190, 190, 190);">
<polygon points="0,50 50,100 100,50 50,0"/>
</g></g><g transform="translate(100,80) scale(0.1,0.1)"><g transform="" style="fill: rgb(190, 190, 190);">
<polygon points="0,50 50,100 100,50 50,0"/>
</g></g><g transform="translate(110,80) scale(0.1,0.1)"><g transform="" style="fill: rgb(190, 190, 190);">
<polygon points="0,50 50,100 100,50 50,0"/>
</g></g><g transform="translate(120,80) scale(0.1,0.1)"><g transform="" style="fill: rgb(190, 190, 190);">
<polygon points="0,50 50,100 100,50 50,0"/>
</g></g><g transform="translate(130,80) scale(0.1,0.1)"><g transform="" style="fill: rgb(190, 190, 190);">
<polygon points="0,50 50,100 100,50 50,0"/>
</g></g><g transform="translate(140,80) scale(0.1,0.1)"><g transform="" style="fill: rgb(190, 190, 190);">
<polygon points="0,50 50,100 100,50 50,0"/>
</g></g><g transform="translate(150,80) scale(0.1,0.1)"><g transform="" style="fill: rgb(190, 190, 190);">
<polygon points="0,50 50,100 100,50 50,0"/>
</g></g><g transform="translate(180,80) scale(0.1,0.1)"><g transform="" style="fill: rgb(190, 190, 190);">
<polygon points="0,50 50,100 100,50 50,0"/>
</g></g><g transform="translate(190,80) scale(0.1,0.1)"><g transform="" style="fill: rgb(190, 190, 190);">
<polygon points="0,50 50,100 100,50 50,0"/>
</g></g><g transform="translate(200,80) scale(0.1,0.1)"><g transform="" style="fill: rgb(190, 190, 190);">
<polygon points="0,50 50,100 100,50 50,0"/>
</g></g><g transform="translate(210,80) scale(0.1,0.1)"><g transform="" style="fill: rgb(190, 190, 190);">
<polygon points="0,50 50,100 100,50 50,0"/>
</g></g><g transform="translate(220,80) scale(0.1,0.1)"><g transform="" style="fill: rgb(190, 190, 190);">
<polygon points="0,50 50,100 100,50 50,0"/>
</g></g><g transform="translate(0,90) scale(0.1,0.1)"><g transform="" style="fill: rgb(190, 190, 190);">
<polygon points="0,50 50,100 100,50 50,0"/>
</g></g><g transform="translate(40,90) scale(0.1,0.1)"><g transform="" style="fill: rgb(190, 190, 190);">
<polygon points="0,50 50,100 100,50 50,0"/>
</g></g><g transform="translate(50,90) scale(0.1,0.1)"><g transform="" style="fill: rgb(190, 190, 190);">
<polygon points="0,50 50,100 100,50 50,0"/>
</g></g><g transform="translate(80,90) scale(0.1,0.1)"><g transform="" style="fill: rgb(190, 190, 190);">
<polygon points="0,50 50,100 100,50 50,0"/>
</g></g><g transform="translate(100,90) scale(0.1,0.1)"><g transform="" style="fill: rgb(190, 190, 190);">
<polygon points="0,50 50,100 100,50 50,0"/>
</g></g><g transform="translate(110,90) scale(0.1,0.1)"><g transform="" style="fill: rgb(190, 190, 190);">
<polygon points="0,50 50,100 100,50 50,0"/>
</g></g><g transform="translate(140,90) scale(0.1,0.1)"><g transform="" style="fill: rgb(190, 190, 190);">
<polygon points="0,50 50,100 100,50 50,0"/>
</g></g><g transform="translate(160,90) scale(0.1,0.1)"><g transform="" style="fill: rgb(190, 190, 190);">
<polygon points="0,50 50,100 100,50 50,0"/>
</g></g><g transform="translate(190,90) scale(0.1,0.1)"><g transform="" style="fill: rgb(190, 190, 190);">
<polygon points="0,50 50,100 100,50 50,0"/>
</g></g><g transform="translate(230,90) scale(0.1,0.1)"><g transform="" style="fill: rgb(190, 190, 190);">
<polygon points="0,50 50,100 100,50 50,0"/>
</g></g><g transform="translate(20,100) scale(0.1,0.1)"><g transform="" style="fill: rgb(190, 190, 190);">
<polygon points="0,50 50,100 100,50 50,0"/>
</g></g><g transform="translate(40,100) scale(0.1,0.1)"><g transform="" style="fill: rgb(190, 190, 190);">
<polygon points="0,50 50,100 100,50 50,0"/>
</g></g><g transform="translate(60,100) scale(0.1,0.1)"><g transform="" style="fill: rgb(190, 190, 190);">
<polygon points="0,50 50,100 100,50 50,0"/>
</g></g><g transform="translate(70,100) scale(0.1,0.1)"><g transform="" style="fill: rgb(190, 190, 190);">
<polygon points="0,50 50,100 100,50 50,0"/>
</g></g><g transform="translate(80,100) scale(0.1,0.1)"><g transform="" style="fill: rgb(190, 190, 190);">
<polygon points="0,50 50,100 100,50 50,0"/>
</g></g><g transform="translate(110,100) scale(0.1,0.1)"><g transform="" style="fill: rgb(190, 190, 190);">
<polygon points="0,50 50,100 100,50 50,0"/>
</g></g><g transform="translate(140,100) scale(0.1,0.1)"><g transform="" style="fill: rgb(190, 190, 190);">
<polygon points="0,50 50,100 100,50 50,0"/>
</g></g><g transform="translate(150,100) scale(0.1,0.1)"><g transform="" style="fill: rgb(190, 190, 190);">
<polygon points="0,50 50,100 100,50 50,0"/>
</g></g><g transform="translate(160,100) scale(0.1,0.1)"><g transform="" style="fill: rgb(190, 190, 190);">
<polygon points="0,50 50,100 100,50 50,0"/>
</g></g><g transform="translate(190,100) scale(0.1,0.1)"><g transform="" style="fill: rgb(190, 190, 190);">
<polygon points="0,50 50,100 100,50 50,0"/>
</g></g><g transform="translate(200,100) scale(0.1,0.1)"><g transform="" style="fill: rgb(190, 190, 190);">
<polygon points="0,50 50,100 100,50 50,0"/>
</g></g><g transform="translate(210,100) scale(0.1,0.1)"><g transform="" style="fill: rgb(190, 190, 190);">
<polygon points="0,50 50,100 100,50 50,0"/>
</g></g><g transform="translate(230,100) scale(0.1,0.1)"><g transform="" style="fill: rgb(190, 190, 190);">
<polygon points="0,50 50,100 100,50 50,0"/>
</g></g><g transform="translate(240,100) scale(0.1,0.1)"><g transform="" style="fill: rgb(190, 190, 190);">
<polygon points="0,50 50,100 100,50 50,0"/>
</g></g><g transform="translate(0,110) scale(0.1,0.1)"><g transform="" style="fill: rgb(190, 190, 190);">
<polygon points="0,50 50,100 100,50 50,0"/>
</g></g><g transform="translate(10,110) scale(0.1,0.1)"><g transform="" style="fill: rgb(190, 190, 190);">
<polygon points="0,50 50,100 100,50 50,0"/>
</g></g><g transform="translate(30,110) scale(0.1,0.1)"><g transform="" style="fill: rgb(190, 190, 190);">
<polygon points="0,50 50,100 100,50 50,0"/>
</g></g><g transform="translate(70,110) scale(0.1,0.1)"><g transform="" style="fill: rgb(190, 190, 190);">
<polygon points="0,50 50,100 100,50 50,0"/>
</g></g><g transform="translate(80,110) scale(0.1,0.1)"><g transform="" style="fill: rgb(190, 190, 190);">
<polygon points="0,50 50,100 100,50 50,0"/>
</g></g><g transform="translate(90,110) scale(0.1,0.1)"><g transform="" style="fill: rgb(190, 190, 190);">
<polygon points="0,50 50,100 100,50 50,0"/>
</g></g><g transform="translate(100,110) scale(0.1,0.1)"><g transform="" style="fill: rgb(190, 190, 190);">
<polygon points="0,50 50,100 100,50 50,0"/>
</g></g><g transform="translate(110,110) scale(0.1,0.1)"><g transform="" style="fill: rgb(190, 190, 190);">
<polygon points="0,50 50,100 100,50 50,0"/>
</g></g><g transform="translate(140,110) scale(0.1,0.1)"><g transform="" style="fill: rgb(190, 190, 190);">
<polygon points="0,50 50,100 100,50 50,0"/>
</g></g><g transform="translate(170,110) scale(0.1,0.1)"><g transform="" style="fill: rgb(190, 190, 190);">
<polygon points="0,50 50,100 100,50 50,0"/>
</g></g><g transform="translate(180,110) scale(0.1,0.1)"><g transform="" style="fill: rgb(190, 190, 190);">
<polygon points="0,50 50,100 100,50 50,0"/>
</g></g><g transform="translate(200,110) scale(0.1,0.1)"><g transform="" style="fill: rgb(190, 190, 190);">
<polygon points="0,50 50,100 100,50 50,0"/>
</g></g><g transform="translate(240,110) scale(0.1,0.1)"><g transform="" style="fill: rgb(190, 190, 190);">
<polygon points="0,50 50,100 100,50 50,0"/>
</g></g><g transform="translate(0,120) scale(0.1,0.1)"><g transform="" style="fill: rgb(190, 190, 190);">
<polygon points="0,50 50,100 100,50 50,0"/>
</g></g><g transform="translate(20,120) scale(0.1,0.1)"><g transform="" style="fill: rgb(190, 190, 190);">
<polygon points="0,50 50,100 100,50 50,0"/>
</g></g><g transform="translate(30,120) scale(0.1,0.1)"><g transform="" style="fill: rgb(190, 190, 190);">
<polygon points="0,50 50,100 100,50 50,0"/>
</g></g><g transform="translate(50,120) scale(0.1,0.1)"><g transform="" style="fill: rgb(190, 190, 190);">
<polygon points="0,50 50,100 100,50 50,0"/>
</g></g><g transform="translate(60,120) scale(0.1,0.1)"><g transform="" style="fill: rgb(190, 190, 190);">
<polygon points="0,50 50,100 100,50 50,0"/>
</g></g><g transform="translate(90,120) scale(0.1,0.1)"><g transform="" style="fill: rgb(190, 190, 190);">
<polygon points="0,50 50,100 100,50 50,0"/>
</g></g><g transform="translate(100,120) scale(0.1,0.1)"><g transform="" style="fill: rgb(190, 190, 190);">
<polygon points="0,50 50,100 100,50 50,0"/>
</g></g><g transform="translate(110,120) scale(0.1,0.1)"><g transform="" style="fill: rgb(190, 190, 190);">
<polygon points="0,50 50,100 100,50 50,0"/>
</g></g><g transform="translate(120,120) scale(0.1,0.1)"><g transform="" style="fill: rgb(190, 190, 190);">
<polygon points="0,50 50,100 100,50 50,0"/>
</g></g><g transform="translate(130,120) scale(0.1,0.1)"><g transform="" style="fill: rgb(190, 190, 190);">
<polygon points="0,50 50,100 100,50 50,0"/>
</g></g><g transform="translate(170,120) scale(0.1,0.1)"><g transform="" style="fill: rgb(190, 190, 190);">
<polygon points="0,50 50,100 100,50 50,0"/>
</g></g><g transform="translate(180,120) scale(0.1,0.1)"><g transform="" style="fill: rgb(190, 190, 190);">
<polygon points="0,50 50,100 100,50 50,0"/>
</g></g><g transform="translate(200,120) scale(0.1,0.1)"><g transform="" style="fill: rgb(190, 190, 190);">
<polygon points="0,50 50,100 100,50 50,0"/>
</g></g><g transform="translate(220,120) scale(0.1,0.1)"><g transform="" style="fill: rgb(190, 190, 190);">
<polygon points="0,50 50,100 100,50 50,0"/>
</g></g><g transform="translate(230,120) scale(0.1,0.1)"><g transform="" style="fill: rgb(190, 190, 190);">
<polygon points="0,50 50,100 100,50 50,0"/>
</g></g><g transform="translate(240,120) scale(0.1,0.1)"><g transform="" style="fill: rgb(190, 190, 190);">
<polygon points="0,50 50,100 100,50 50,0"/>
</g></g><g transform="translate(0,130) scale(0.1,0.1)"><g transform="" style="fill: rgb(190, 190, 190);">
<polygon points="0,50 50,100 100,50 50,0"/>
</g></g><g transform="translate(20,130) scale(0.1,0.1)"><g transform="" style="fill: rgb(190, 190, 190);">
<polygon points="0,50 50,100 100,50 50,0"/>
</g></g><g transform="translate(30,130) scale(0.1,0.1)"><g transform="" style="fill: rgb(190, 190, 190);">
<polygon points="0,50 50,100 100,50 50,0"/>
</g></g><g transform="translate(70,130) scale(0.1,0.1)"><g transform="" style="fill: rgb(190, 190, 190);">
<polygon points="0,50 50,100 100,50 50,0"/>
</g></g><g transform="translate(90,130) scale(0.1,0.1)"><g transform="" style="fill: rgb(190, 190, 190);">
<polygon points="0,50 50,100 100,50 50,0"/>
</g></g><g transform="translate(130,130) scale(0.1,0.1)"><g transform="" style="fill: rgb(190, 190, 190);">
<polygon points="0,50 50,100 100,50 50,0"/>
</g></g><g transform="translate(160,130) scale(0.1,0.1)"><g transform="" style="fill: rgb(190, 190, 190);">
<polygon points="0,50 50,100 100,50 50,0"/>
</g></g><g transform="translate(170,130) scale(0.1,0.1)"><g transform="" style="fill: rgb(190, 190, 190);">
<polygon points="0,50 50,100 100,50 50,0"/>
</g></g><g transform="translate(190,130) scale(0.1,0.1)"><g transform="" style="fill: rgb(190, 190, 190);">
<polygon points="0,50 50,100 100,50 50,0"/>
</g></g><g transform="translate(210,130) scale(0.1,0.1)"><g transform="" style="fill: rgb(190, 190, 190);">
<polygon points="0,50 50,100 100,50 50,0"/>
</g></g><g transform="translate(230,130) scale(0.1,0.1)"><g transform="" style="fill: rgb(190, 190, 190);">
<polygon points="0,50 50,100 100,50 50,0"/>
</g></g><g transform="translate(0,140) scale(0.1,0.1)"><g transform="" style="fill: rgb(190, 190, 190);">
<polygon points="0,50 50,100 100,50 50,0"/>
</g></g><g transform="translate(30,140) scale(0.1,0.1)"><g transform="" style="fill: rgb(190, 190, 190);">
<polygon points="0,50 50,100 100,50 50,0"/>
</g></g><g transform="translate(40,140) scale(0.1,0.1)"><g transform="" style="fill: rgb(190, 190, 190);">
<polygon points="0,50 50,100 100,50 50,0"/>
</g></g><g transform="translate(50,140) scale(0.1,0.1)"><g transform="" style="fill: rgb(190, 190, 190);">
<polygon points="0,50 50,100 100,50 50,0"/>
</g></g><g transform="translate(60,140) scale(0.1,0.1)"><g transform="" style="fill: rgb(190, 190, 190);">
<polygon points="0,50 50,100 100,50 50,0"/>
</g></g><g transform="translate(80,140) scale(0.1,0.1)"><g transform="" style="fill: rgb(190, 190, 190);">
<polygon points="0,50 50,100 100,50 50,0"/>
</g></g><g transform="translate(110,140) scale(0.1,0.1)"><g transform="" style="fill: rgb(190, 190, 190);">
<polygon points="0,50 50,100 100,50 50,0"/>
</g></g><g transform="translate(120,140) scale(0.1,0.1)"><g transform="" style="fill: rgb(190, 190, 190);">
<polygon points="0,50 50,100 100,50 50,0"/>
</g></g><g transform="translate(130,140) scale(0.1,0.1)"><g transform="" style="fill: rgb(190, 190, 190);">
<polygon points="0,50 50,100 100,50 50,0"/>
</g></g><g transform="translate(140,140) scale(0.1,0.1)"><g transform="" style="fill: rgb(190, 190, 190);">
<polygon points="0,50 50,100 100,50 50,0"/>
</g></g><g transform="translate(150,140) scale(0.1,0.1)"><g transform="" style="fill: rgb(190, 190, 190);">
<polygon points="0,50 50,100 100,50 50,0"/>
</g></g><g transform="translate(180,140) scale(0.1,0.1)"><g transform="" style="fill: rgb(190, 190, 190);">
<polygon points="0,50 50,100 100,50 50,0"/>
</g></g><g transform="translate(190,140) scale(0.1,0.1)"><g transform="" style="fill: rgb(190, 190, 190);">
<polygon points="0,50 50,100 100,50 50,0"/>
</g></g><g transform="translate(200,140) scale(0.1,0.1)"><g transform="" style="fill: rgb(190, 190, 190);">
<polygon points="0,50 50,100 100,50 50,0"/>
</g></g><g transform="translate(210,140) scale(0.1,0.1)"><g transform="" style="fill: rgb(190, 190, 190);">
<polygon points="0,50 50,100 100,50 50,0"/>
</g></g><g transform="translate(230,140) scale(0.1,0.1)"><g transform="" style="fill: rgb(190, 190, 190);">
<polygon points="0,50 50,100 100,50 50,0"/>
</g></g><g transform="translate(240,140) scale(0.1,0.1)"><g transform="" style="fill: rgb(190, 190, 190);">
<polygon points="0,50 50,100 100,50 50,0"/>
</g></g><g transform="translate(0,150) scale(0.1,0.1)"><g transform="" style="fill: rgb(190, 190, 190);">
<polygon points="0,50 50,100 100,50 50,0"/>
</g></g><g transform="translate(30,150) scale(0.1,0.1)"><g transform="" style="fill: rgb(190, 190, 190);">
<polygon points="0,50 50,100 100,50 50,0"/>
</g></g><g transform="translate(80,150) scale(0.1,0.1)"><g transform="" style="fill: rgb(190, 190, 190);">
<polygon points="0,50 50,100 100,50 50,0"/>
</g></g><g transform="translate(110,150) scale(0.1,0.1)"><g transform="" style="fill: rgb(190, 190, 190);">
<polygon points="0,50 50,100 100,50 50,0"/>
</g></g><g transform="translate(140,150) scale(0.1,0.1)"><g transform="" style="fill: rgb(190, 190, 190);">
<polygon points="0,50 50,100 100,50 50,0"/>
</g></g><g transform="translate(150,150) scale(0.1,0.1)"><g transform="" style="fill: rgb(190, 190, 190);">
<polygon points="0,50 50,100 100,50 50,0"/>
</g></g><g transform="translate(160,150) scale(0.1,0.1)"><g transform="" style="fill: rgb(190, 190, 190);">
<polygon points="0,50 50,100 100,50 50,0"/>
</g></g><g transform="translate(190,150) scale(0.1,0.1)"><g transform="" style="fill: rgb(190, 190, 190);">
<polygon points="0,50 50,100 100,50 50,0"/>
</g></g><g transform="translate(200,150) scale(0.1,0.1)"><g transform="" style="fill: rgb(190, 190, 190);">
<polygon points="0,50 50,100 100,50 50,0"/>
</g></g><g transform="translate(240,150) scale(0.1,0.1)"><g transform="" style="fill: rgb(190, 190, 190);">
<polygon points="0,50 50,100 100,50 50,0"/>
</g></g><g transform="translate(0,160) scale(0.1,0.1)"><g transform="" style="fill: rgb(190, 190, 190);">
<polygon points="0,50 50,100 100,50 50,0"/>
</g></g><g transform="translate(20,160) scale(0.1,0.1)"><g transform="" style="fill: rgb(190, 190, 190);">
<polygon points="0,50 50,100 100,50 50,0"/>
</g></g><g transform="translate(30,160) scale(0.1,0.1)"><g transform="" style="fill: rgb(190, 190, 190);">
<polygon points="0,50 50,100 100,50 50,0"/>
</g></g><g transform="translate(40,160) scale(0.1,0.1)"><g transform="" style="fill: rgb(190, 190, 190);">
<polygon points="0,50 50,100 100,50 50,0"/>
</g></g><g transform="translate(50,160) scale(0.1,0.1)"><g transform="" style="fill: rgb(190, 190, 190);">
<polygon points="0,50 50,100 100,50 50,0"/>
</g></g><g transform="translate(60,160) scale(0.1,0.1)"><g transform="" style="fill: rgb(190, 190, 190);">
<polygon points="0,50 50,100 100,50 50,0"/>
</g></g><g transform="translate(70,160) scale(0.1,0.1)"><g transform="" style="fill: rgb(190, 190, 190);">
<polygon points="0,50 50,100 100,50 50,0"/>
</g></g><g transform="translate(80,160) scale(0.1,0.1)"><g transform="" style="fill: rgb(190, 190, 190);">
<polygon points="0,50 50,100 100,50 50,0"/>
</g></g><g transform="translate(110,160) scale(0.1,0.1)"><g transform="" style="fill: rgb(190, 190, 190);">
<polygon points="0,50 50,100 100,50 50,0"/>
</g></g><g transform="translate(160,160) scale(0.1,0.1)"><g transform="" style="fill: rgb(190, 190, 190);">
<polygon points="0,50 50,100 100,50 50,0"/>
</g></g><g transform="translate(170,160) scale(0.1,0.1)"><g transform="" style="fill: rgb(190, 190, 190);">
<polygon points="0,50 50,100 100,50 50,0"/>
</g></g><g transform="translate(180,160) scale(0.1,0.1)"><g transform="" style="fill: rgb(190, 190, 190);">
<polygon points="0,50 50,100 100,50 50,0"/>
</g></g><g transform="translate(190,160) scale(0.1,0.1)"><g transform="" style="fill: rgb(190, 190, 190);">
<polygon points="0,50 50,100 100,50 50,0"/>
</g></g><g transform="translate(200,160) scale(0.1,0.1)"><g transform="" style="fill: rgb(190, 190, 190);">
<polygon points="0,50 50,100 100,50 50,0"/>
</g></g><g transform="translate(220,160) scale(0.1,0.1)"><g transform="" style="fill: rgb(190, 190, 190);">
<polygon points="0,50 50,100 100,50 50,0"/>
</g></g><g transform="translate(80,170) scale(0.1,0.1)"><g transform="" style="fill: rgb(190, 190, 190);">
<polygon points="0,50 50,100 100,50 50,0"/>
</g></g><g transform="translate(90,170) scale(0.1,0.1)"><g transform="" style="fill: rgb(190, 190, 190);">
<polygon points="0,50 50,100 100,50 50,0"/>
</g></g><g transform="translate(100,170) scale(0.1,0.1)"><g transform="" style="fill: rgb(190, 190, 190);">
<polygon points="0,50 50,100 100,50 50,0"/>
</g></g><g transform="translate(120,170) scale(0.1,0.1)"><g transform="" style="fill: rgb(190, 190, 190);">
<polygon points="0,50 50,100 100,50 50,0"/>
</g></g><g transform="translate(130,170) scale(0.1,0.1)"><g transform="" style="fill: rgb(190, 190, 190);">
<polygon points="0,50 50,100 100,50 50,0"/>
</g></g><g transform="translate(150,170) scale(0.1,0.1)"><g transform="" style="fill: rgb(190, 190, 190);">
<polygon points="0,50 50,100 100,50 50,0"/>
</g></g><g transform="translate(160,170) scale(0.1,0.1)"><g transform="" style="fill: rgb(190, 190, 190);">
<polygon points="0,50 50,100 100,50 50,0"/>
</g></g><g transform="translate(200,170) scale(0.1,0.1)"><g transform="" style="fill: rgb(190, 190, 190);">
<polygon points="0,50 50,100 100,50 50,0"/>
</g></g><g transform="translate(210,170) scale(0.1,0.1)"><g transform="" style="fill: rgb(190, 190, 190);">
<polygon points="0,50 50,100 100,50 50,0"/>
</g></g><g transform="translate(90,180) scale(0.1,0.1)"><g transform="" style="fill: rgb(190, 190, 190);">
<polygon points="0,50 50,100 100,50 50,0"/>
</g></g><g transform="translate(130,180) scale(0.1,0.1)"><g transform="" style="fill: rgb(190, 190, 190);">
<polygon points="0,50 50,100 100,50 50,0"/>
</g></g><g transform="translate(140,180) scale(0.1,0.1)"><g transform="" style="fill: rgb(190, 190, 190);">
<polygon points="0,50 50,100 100,50 50,0"/>
</g></g><g transform="translate(160,180) scale(0.1,0.1)"><g transform="" style="fill: rgb(190, 190, 190);">
<polygon points="0,50 50,100 100,50 50,0"/>
</g></g><g transform="translate(180,180) scale(0.1,0.1)"><g transform="" style="fill: rgb(190, 190, 190);">
<polygon points="0,50 50,100 100,50 50,0"/>
</g></g><g transform="translate(200,180) scale(0.1,0.1)"><g transform="" style="fill: rgb(190, 190, 190);">
<polygon points="0,50 50,100 100,50 50,0"/>
</g></g><g transform="translate(220,180) scale(0.1,0.1)"><g transform="" style="fill: rgb(190, 190, 190);">
<polygon points="0,50 50,100 100,50 50,0"/>
</g></g><g transform="translate(230,180) scale(0.1,0.1)"><g transform="" style="fill: rgb(190, 190, 190);">
<polygon points="0,50 50,100 100,50 50,0"/>
</g></g><g transform="translate(240,180) scale(0.1,0.1)"><g transform="" style="fill: rgb(190, 190, 190);">
<polygon points="0,50 50,100 100,50 50,0"/>
</g></g><g transform="translate(80,190) scale(0.1,0.1)"><g transform="" style="fill: rgb(190, 190, 190);">
<polygon points="0,50 50,100 100,50 50,0"/>
</g></g><g transform="translate(120,190) scale(0.1,0.1)"><g transform="" style="fill: rgb(190, 190, 190);">
<polygon points="0,50 50,100 100,50 50,0"/>
</g></g><g transform="translate(130,190) scale(0.1,0.1)"><g transform="" style="fill: rgb(190, 190, 190);">
<polygon points="0,50 50,100 100,50 50,0"/>
</g></g><g transform="translate(160,190) scale(0.1,0.1)"><g transform="" style="fill: rgb(190, 190, 190);">
<polygon points="0,50 50,100 100,50 50,0"/>
</g></g><g transform="translate(200,190) scale(0.1,0.1)"><g transform="" style="fill: rgb(190, 190, 190);">
<polygon points="0,50 50,100 100,50 50,0"/>
</g></g><g transform="translate(210,190) scale(0.1,0.1)"><g transform="" style="fill: rgb(190, 190, 190);">
<polygon points="0,50 50,100 100,50 50,0"/>
</g></g><g transform="translate(230,190) scale(0.1,0.1)"><g transform="" style="fill: rgb(190, 190, 190);">
<polygon points="0,50 50,100 100,50 50,0"/>
</g></g><g transform="translate(240,190) scale(0.1,0.1)"><g transform="" style="fill: rgb(190, 190, 190);">
<polygon points="0,50 50,100 100,50 50,0"/>
</g></g><g transform="translate(80,200) scale(0.1,0.1)"><g transform="" style="fill: rgb(190, 190, 190);">
<polygon points="0,50 50,100 100,50 50,0"/>
</g></g><g transform="translate(100,200) scale(0.1,0.1)"><g transform="" style="fill: rgb(190, 190, 190);">
<polygon points="0,50 50,100 100,50 50,0"/>
</g></g><g transform="translate(120,200) scale(0.1,0.1)"><g transform="" style="fill: rgb(190, 190, 190);">
<polygon points="0,50 50,100 100,50 50,0"/>
</g></g><g transform="translate(140,200) scale(0.1,0.1)"><g transform="" style="fill: rgb(190, 190, 190);">
<polygon points="0,50 50,100 100,50 50,0"/>
</g></g><g transform="translate(150,200) scale(0.1,0.1)"><g transform="" style="fill: rgb(190, 190, 190);">
<polygon points="0,50 50,100 100,50 50,0"/>
</g></g><g transform="translate(160,200) scale(0.1,0.1)"><g transform="" style="fill: rgb(190, 190, 190);">
<polygon points="0,50 50,100 100,50 50,0"/>
</g></g><g transform="translate(170,200) scale(0.1,0.1)"><g transform="" style="fill: rgb(190, 190, 190);">
<polygon points="0,50 50,100 100,50 50,0"/>
</g></g><g transform="translate(180,200) scale(0.1,0.1)"><g transform="" style="fill: rgb(190, 190, 190);">
<polygon points="0,50 50,100 100,50 50,0"/>
</g></g><g transform="translate(190,200) scale(0.1,0.1)"><g transform="" style="fill: rgb(190, 190, 190);">
<polygon points="0,50 50,100 100,50 50,0"/>
</g></g><g transform="translate(200,200) scale(0.1,0.1)"><g transform="" style="fill: rgb(190, 190, 190);">
<polygon points="0,50 50,100 100,50 50,0"/>
</g></g><g transform="translate(220,200) scale(0.1,0.1)"><g transform="" style="fill: rgb(190, 190, 190);">
<polygon points="0,50 50,100 100,50 50,0"/>
</g></g><g transform="translate(230,200) scale(0.1,0.1)"><g transform="" style="fill: rgb(190, 190, 190);">
<polygon points="0,50 50,100 100,50 50,0"/>
</g></g><g transform="translate(240,200) scale(0.1,0.1)"><g transform="" style="fill: rgb(190, 190, 190);">
<polygon points="0,50 50,100 100,50 50,0"/>
</g></g><g transform="translate(80,210) scale(0.1,0.1)"><g transform="" style="fill: rgb(190, 190, 190);">
<polygon points="0,50 50,100 100,50 50,0"/>
</g></g><g transform="translate(90,210) scale(0.1,0.1)"><g transform="" style="fill: rgb(190, 190, 190);">
<polygon points="0,50 50,100 100,50 50,0"/>
</g></g><g transform="translate(100,210) scale(0.1,0.1)"><g transform="" style="fill: rgb(190, 190, 190);">
<polygon points="0,50 50,100 100,50 50,0"/>
</g></g><g transform="translate(150,210) scale(0.1,0.1)"><g transform="" style="fill: rgb(190, 190, 190);">
<polygon points="0,50 50,100 100,50 50,0"/>
</g></g><g transform="translate(170,210) scale(0.1,0.1)"><g transform="" style="fill: rgb(190, 190, 190);">
<polygon points="0,50 50,100 100,50 50,0"/>
</g></g><g transform="translate(180,210) scale(0.1,0.1)"><g transform="" style="fill: rgb(190, 190, 190);">
<polygon points="0,50 50,100 100,50 50,0"/>
</g></g><g transform="translate(200,210) scale(0.1,0.1)"><g transform="" style="fill: rgb(190, 190, 190);">
<polygon points="0,50 50,100 100,50 50,0"/>
</g></g><g transform="translate(210,210) scale(0.1,0.1)"><g transform="" style="fill: rgb(190, 190, 190);">
<polygon points="0,50 50,100 100,50 50,0"/>
</g></g><g transform="translate(220,210) scale(0.1,0.1)"><g transform="" style="fill: rgb(190, 190, 190);">
<polygon points="0,50 50,100 100,50 50,0"/>
</g></g><g transform="translate(230,210) scale(0.1,0.1)"><g transform="" style="fill: rgb(190, 190, 190);">
<polygon points="0,50 50,100 100,50 50,0"/>
</g></g><g transform="translate(240,210) scale(0.1,0.1)"><g transform="" style="fill: rgb(190, 190, 190);">
<polygon points="0,50 50,100 100,50 50,0"/>
</g></g><g transform="translate(80,220) scale(0.1,0.1)"><g transform="" style="fill: rgb(190, 190, 190);">
<polygon points="0,50 50,100 100,50 50,0"/>
</g></g><g transform="translate(110,220) scale(0.1,0.1)"><g transform="" style="fill: rgb(190, 190, 190);">
<polygon points="0,50 50,100 100,50 50,0"/>
</g></g><g transform="translate(120,220) scale(0.1,0.1)"><g transform="" style="fill: rgb(190, 190, 190);">
<polygon points="0,50 50,100 100,50 50,0"/>
</g></g><g transform="translate(160,220) scale(0.1,0.1)"><g transform="" style="fill: rgb(190, 190, 190);">
<polygon points="0,50 50,100 100,50 50,0"/>
</g></g><g transform="translate(210,220) scale(0.1,0.1)"><g transform="" style="fill: rgb(190, 190, 190);">
<polygon points="0,50 50,100 100,50 50,0"/>
</g></g><g transform="translate(220,220) scale(0.1,0.1)"><g transform="" style="fill: rgb(190, 190, 190);">
<polygon points="0,50 50,100 100,50 50,0"/>
</g></g><g transform="translate(240,220) scale(0.1,0.1)"><g transform="" style="fill: rgb(190, 190, 190);">
<polygon points="0,50 50,100 100,50 50,0"/>
</g></g><g transform="translate(90,230) scale(0.1,0.1)"><g transform="" style="fill: rgb(190, 190, 190);">
<polygon points="0,50 50,100 100,50 50,0"/>
</g></g><g transform="translate(100,230) scale(0.1,0.1)"><g transform="" style="fill: rgb(190, 190, 190);">
<polygon points="0,50 50,100 100,50 50,0"/>
</g></g><g transform="translate(110,230) scale(0.1,0.1)"><g transform="" style="fill: rgb(190, 190, 190);">
<polygon points="0,50 50,100 100,50 50,0"/>
</g></g><g transform="translate(140,230) scale(0.1,0.1)"><g transform="" style="fill: rgb(190, 190, 190);">
<polygon points="0,50 50,100 100,50 50,0"/>
</g></g><g transform="translate(150,230) scale(0.1,0.1)"><g transform="" style="fill: rgb(190, 190, 190);">
<polygon points="0,50 50,100 100,50 50,0"/>
</g></g><g transform="translate(160,230) scale(0.1,0.1)"><g transform="" style="fill: rgb(190, 190, 190);">
<polygon points="0,50 50,100 100,50 50,0"/>
</g></g><g transform="translate(190,230) scale(0.1,0.1)"><g transform="" style="fill: rgb(190, 190, 190);">
<polygon points="0,50 50,100 100,50 50,0"/>
</g></g><g transform="translate(200,230) scale(0.1,0.1)"><g transform="" style="fill: rgb(190, 190, 190);">
<polygon points="0,50 50,100 100,50 50,0"/>
</g></g><g transform="translate(210,230) scale(0.1,0.1)"><g transform="" style="fill: rgb(190, 190, 190);">
<polygon points="0,50 50,100 100,50 50,0"/>
</g></g><g transform="translate(240,230) scale(0.1,0.1)"><g transform="" style="fill: rgb(190, 190, 190);">
<polygon points="0,50 50,100 100,50 50,0"/>
</g></g><g transform="translate(80,240) scale(0.1,0.1)"><g transform="" style="fill: rgb(190, 190, 190);">
<polygon points="0,50 50,100 100,50 50,0"/>
</g></g><g transform="translate(110,240) scale(0.1,0.1)"><g transform="" style="fill: rgb(190, 190, 190);">
<polygon points="0,50 50,100 100,50 50,0"/>
</g></g><g transform="translate(170,240) scale(0.1,0.1)"><g transform="" style="fill: rgb(190, 190, 190);">
<polygon points="0,50 50,100 100,50 50,0"/>
</g></g><g transform="translate(180,240) scale(0.1,0.1)"><g transform="" style="fill: rgb(190, 190, 190);">
<polygon points="0,50 50,100 100,50 50,0"/>
</g></g><g transform="translate(190,240) scale(0.1,0.1)"><g transform="" style="fill: rgb(190, 190, 190);">
<polygon points="0,50 50,100 100,50 50,0"/>
</g></g><g transform="translate(200,240) scale(0.1,0.1)"><g transform="" style="fill: rgb(190, 190, 190);">
<polygon points="0,50 50,100 100,50 50,0"/>
</g></g><g transform="translate(210,240) scale(0.1,0.1)"><g transform="" style="fill: rgb(190, 190, 190);">
<polygon points="0,50 50,100 100,50 50,0"/>
</g></g><g transform="translate(220,240) scale(0.1,0.1)"><g transform="" style="fill: rgb(190, 190, 190);">
<polygon points="0,50 50,100 100,50 50,0"/>
</g></g><g transform="translate(230,240) scale(0.1,0.1)"><g transform="" style="fill: rgb(190, 190, 190);">
<polygon points="0,50 50,100 100,50 50,0"/>
</g></g><g transform="translate(240,240) scale(0.1,0.1)"><g transform="" style="fill: rgb(190, 190, 190);">
<polygon points="0,50 50,100 100,50 50,0"/>
</g></g><g transform="translate(0,0) scale(0.7, 0.7)"><g transform="" style="fill: rgb(190, 190, 190);">
<g>
	<path style="fill:none;" d="M65.859,15.008H34.141c-4.082,0-7.869,1.258-10.979,3.398c-2.419,1.665-4.428,3.864-5.848,6.421
		C15.838,27.484,15,30.526,15,33.758v32.471c0,10.344,8.586,18.76,19.145,18.76L50,84.992l15.855-0.004
		C76.414,84.988,85,76.572,85,66.229V33.758C85,23.419,76.414,15.008,65.859,15.008z"/>
	<path d="M65.859,0.008H34.141h0C18.683,0.008,5.587,10.221,1.4,24.18c-0.433,1.444-0.771,2.928-1.006,4.445
		C0.135,30.299,0,32.013,0,33.758v32.471c0,18.619,15.32,33.76,34.141,33.76L50,99.992l15.859-0.004
		c18.82,0,34.141-15.141,34.141-33.76V33.758C100,15.148,84.68,0.008,65.859,0.008z M85,66.229c0,10.344-8.586,18.76-19.145,18.76
		L50,84.992l-15.855-0.004C23.586,84.988,15,76.572,15,66.229V33.758c0-3.231,0.838-6.273,2.313-8.931
		c1.42-2.557,3.429-4.756,5.848-6.421c3.11-2.141,6.897-3.398,10.979-3.398h31.719C76.414,15.008,85,23.419,85,33.758V66.229z"/>
</g>
</g></g><g transform="translate(180,0) scale(0.7, 0.7)"><g transform="" style="fill: rgb(190, 190, 190);">
<g>
	<path style="fill:none;" d="M65.859,15.008H34.141c-4.082,0-7.869,1.258-10.979,3.398c-2.419,1.665-4.428,3.864-5.848,6.421
		C15.838,27.484,15,30.526,15,33.758v32.471c0,10.344,8.586,18.76,19.145,18.76L50,84.992l15.855-0.004
		C76.414,84.988,85,76.572,85,66.229V33.758C85,23.419,76.414,15.008,65.859,15.008z"/>
	<path d="M65.859,0.008H34.141h0C18.683,0.008,5.587,10.221,1.4,24.18c-0.433,1.444-0.771,2.928-1.006,4.445
		C0.135,30.299,0,32.013,0,33.758v32.471c0,18.619,15.32,33.76,34.141,33.76L50,99.992l15.859-0.004
		c18.82,0,34.141-15.141,34.141-33.76V33.758C100,15.148,84.68,0.008,65.859,0.008z M85,66.229c0,10.344-8.586,18.76-19.145,18.76
		L50,84.992l-15.855-0.004C23.586,84.988,15,76.572,15,66.229V33.758c0-3.231,0.838-6.273,2.313-8.931
		c1.42-2.557,3.429-4.756,5.848-6.421c3.11-2.141,6.897-3.398,10.979-3.398h31.719C76.414,15.008,85,23.419,85,33.758V66.229z"/>
</g>
</g></g><g transform="translate(0,180) scale(0.7, 0.7)"><g transform="" style="fill: rgb(190, 190, 190);">
<g>
	<path style="fill:none;" d="M65.859,15.008H34.141c-4.082,0-7.869,1.258-10.979,3.398c-2.419,1.665-4.428,3.864-5.848,6.421
		C15.838,27.484,15,30.526,15,33.758v32.471c0,10.344,8.586,18.76,19.145,18.76L50,84.992l15.855-0.004
		C76.414,84.988,85,76.572,85,66.229V33.758C85,23.419,76.414,15.008,65.859,15.008z"/>
	<path d="M65.859,0.008H34.141h0C18.683,0.008,5.587,10.221,1.4,24.18c-0.433,1.444-0.771,2.928-1.006,4.445
		C0.135,30.299,0,32.013,0,33.758v32.471c0,18.619,15.32,33.76,34.141,33.76L50,99.992l15.859-0.004
		c18.82,0,34.141-15.141,34.141-33.76V33.758C100,15.148,84.68,0.008,65.859,0.008z M85,66.229c0,10.344-8.586,18.76-19.145,18.76
		L50,84.992l-15.855-0.004C23.586,84.988,15,76.572,15,66.229V33.758c0-3.231,0.838-6.273,2.313-8.931
		c1.42-2.557,3.429-4.756,5.848-6.421c3.11-2.141,6.897-3.398,10.979-3.398h31.719C76.414,15.008,85,23.419,85,33.758V66.229z"/>
</g>
</g></g><g transform="translate(20,20) scale(0.29411764705882, 0.29411764705882)"><g transform="" style="fill: rgb(190, 190, 190);">
<circle cx="50" cy="50" r="50"/>
</g></g><g transform="translate(200,20) scale(0.29411764705882, 0.29411764705882)"><g transform="" style="fill: rgb(190, 190, 190);">
<circle cx="50" cy="50" r="50"/>
</g></g><g transform="translate(20,200) scale(0.29411764705882, 0.29411764705882)"><g transform="" style="fill: rgb(190, 190, 190);">
<circle cx="50" cy="50" r="50"/>
</g></g></g></svg>